<svg xmlns="http://www.w3.org/2000/svg" width="1024" height="1024" viewBox="0 0 1024 1024">
  <defs>
    <linearGradient id="bg" x1="0" y1="0" x2="1" y2="1"><stop offset="0" stop-color="#0F2D5B"/><stop offset="1" stop-color="#062A4F"/></linearGradient>
    <linearGradient id="blue" x1="0" y1="0" x2="1" y2="1"><stop offset="0" stop-color="#60A5FA"/><stop offset="1" stop-color="#2563EB"/></linearGradient>
    <linearGradient id="green" x1="0" y1="0" x2="1" y2="1"><stop offset="0" stop-color="#34D399"/><stop offset="1" stop-color="#10B981"/></linearGradient>
  </defs>
  <rect width="1024" height="1024" rx="190" fill="url(#bg)"/>
  <path d="M500 224C342 224 214 351 214 512s128 288 286 288c98 0 186-50 237-131l-96-65c-31 45-80 73-141 73-94 0-170-75-170-165s76-165 170-165c61 0 110 28 141 73l96-65c-51-81-139-131-237-131Z" fill="url(#blue)"/>
  <rect x="417" y="482" width="54" height="152" rx="27" fill="#2563EB"/>
  <rect x="500" y="420" width="54" height="214" rx="27" fill="#10B981"/>
  <rect x="583" y="354" width="54" height="280" rx="27" fill="url(#green)"/>
</svg>
